<?xml version="1.0" encoding="UTF-8"?>
<!DOCTYPE svg PUBLIC "-//W3C//DTD SVG 1.1//EN" "http://www.w3.org/Graphics/SVG/1.1/DTD/svg11.dtd">
<!-- Creator: CorelDRAW 2021 (64-Bit) -->
<svg xmlns="http://www.w3.org/2000/svg" xml:space="preserve" width="270.332mm" height="58.3354mm" version="1.1" style="shape-rendering:geometricPrecision; text-rendering:geometricPrecision; image-rendering:optimizeQuality; fill-rule:evenodd; clip-rule:evenodd"
viewBox="0 0 5178.2 1117.41"
 xmlns:xlink="http://www.w3.org/1999/xlink"
 xmlns:xodm="http://www.corel.com/coreldraw/odm/2003">
 <defs>
  <style type="text/css">
   <![CDATA[
    .str0 {stroke:white;stroke-width:4.79;stroke-miterlimit:2.61313}
    .fil0 {fill:white}
    .fil1 {fill:white;fill-rule:nonzero}
   ]]>
  </style>
 </defs>
 <g id="Layer_x0020_1">
  <metadata id="CorelCorpID_0Corel-Layer"/>
  <g id="_1707954987424">
   <path class="fil0" d="M463.52 913.54c-3.38,-1.68 -6.74,-15.17 -8.44,-18.53l-111.23 -281.47c-1.68,-3.38 -1.68,-6.74 -3.38,-10.12 -1.68,-3.38 -3.38,-6.74 -3.38,-10.12 5.06,-3.38 8.44,-6.74 13.47,-10.12 1.68,-1.68 3.38,-3.38 6.74,-5.06l6.74 -5.06c8.44,-8.44 18.53,-16.85 26.97,-26.97l8.44 -10.12c15.17,-18.53 25.29,-38.77 35.39,-59 18.53,-38.77 30.33,-92.7 30.33,-136.53 0,-43.82 -1.68,-65.73 -13.47,-107.86 -1.68,-5.06 -3.38,-10.12 -5.06,-15.17 -6.74,-16.85 -11.8,-30.33 -20.23,-47.2 -10.12,-18.53 -21.91,-37.09 -33.71,-52.24l-18.53 -20.23c-8.44,-10.12 -28.65,-26.97 -40.44,-37.09l-11.8 -8.44c-3.38,-3.38 -8.44,-5.06 -11.79,-8.44 -3.38,-1.68 -8.44,-5.06 -11.8,-6.74 -18.53,-11.8 -47.2,-21.91 -69.09,-26.97 -50.56,-13.47 -85.94,-11.8 -136.53,0 -6.74,1.68 -13.47,3.38 -20.23,5.06 -6.74,1.68 -11.79,3.38 -18.53,6.74 -15.17,5.06 -30.33,11.79 -45.5,18.53 -3.38,1.68 -6.74,3.38 -8.44,3.38 10.12,18.53 18.53,37.09 28.65,55.62 3.38,6.74 26.97,50.56 28.65,55.62 3.38,0 18.53,-8.44 21.91,-10.12l16.85 -6.74c1.68,0 3.38,-1.68 6.74,-1.68 33.71,-11.79 64.06,-16.85 99.44,-5.06 16.85,5.06 32.03,11.79 47.2,21.91 8.44,6.74 18.53,13.47 25.29,20.23 1.68,1.68 3.38,3.38 6.74,6.74l5.06 6.74c32.03,35.39 50.56,89.32 50.56,136.53 0,11.79 -1.68,30.33 -3.38,40.44 -5.06,28.65 -13.47,55.62 -30.33,80.91 -3.38,5.06 -6.74,8.44 -10.12,13.47 -1.68,1.68 -3.38,3.38 -5.06,5.06 -6.74,8.44 -20.23,18.53 -30.33,25.29 -23.59,13.47 -38.77,16.85 -65.73,21.91 -5.06,1.68 -13.47,3.38 -18.53,3.38l75.85 200.56c5.06,13.47 10.12,26.97 15.17,40.44 5.06,13.47 10.12,25.29 15.17,38.76 5.06,13.47 10.12,26.97 15.17,40.44 5.06,13.47 10.12,26.97 15.17,38.76 1.68,6.74 5.06,13.47 8.44,20.23l70.79 178.65c3.38,6.74 5.06,13.47 8.44,18.53 5.06,5.06 8.44,10.12 13.47,13.47 3.38,1.68 5.06,3.38 8.44,5.06 13.47,6.73 26.97,8.44 43.82,8.44 21.91,0 47.2,-20.23 53.94,-38.77 10.12,-21.91 18.53,-45.5 26.97,-67.41 18.53,-45.5 35.39,-89.32 53.94,-134.82 38.76,-97.76 328.65,-829.21 345.5,-876.41 0,0 -126.41,0 -126.41,0 -112.91,301.68 -239.32,603.38 -355.62,903.38 -1.68,3.38 -1.68,5.06 -3.38,8.44l5.01 1.72z"/>
   <g>
    <path class="fil1 str0" d="M1182.63 349.37l58.33 0c38.88,-1.29 68.69,-14.25 88.14,-37.59 20.74,-23.32 29.81,-50.55 29.81,-80.36 0,-33.7 -10.36,-62.22 -32.41,-86.83 -22.03,-24.63 -57.02,-37.59 -103.68,-38.88l-116.64 0 0 518.43 -53.13 0 0 -571.56 180.15 0c55.73,1.29 101.1,18.14 133.49,51.84 33.7,33.7 50.55,76.47 50.55,129.6 0,37.59 -10.36,73.87 -33.7,107.57 -23.32,34.99 -58.33,54.44 -106.28,59.62l139.98 224.23 -66.09 0 -168.48 -274.76 -0.03 -1.31zm623.4 -296.81l0 53.13 -242.37 0 0 204.78 242.37 0 0 53.13 -242.37 0 0 208.67 242.37 0 0 51.84 -295.5 0 0 -571.56 295.5 0 0 0.02zm93.32 571.56l-55.73 0 221.63 -571.56 66.09 0 221.63 571.56 -59.62 0 -67.4 -178.86 -257.91 0 -68.69 178.86zm198.31 -521.02l-110.17 291.61 220.34 0 -110.17 -291.61zm355.12 469.18l202.18 0 0 51.84 -256.62 0 0 -571.56 53.13 0 0 519.72 1.31 0zm676.55 -28.52l182.75 -491.21 54.44 0 -217.74 571.56 -41.48 0 -216.45 -571.56 54.44 0 184.04 491.21zm334.38 80.36l-53.13 0 0 -571.56 53.13 0 0 571.56zm77.76 -163.3l53.13 0c0,27.21 9.07,53.13 24.63,77.76 16.85,24.63 44.06,37.59 82.94,38.88 34.99,-1.29 60.91,-11.67 79.07,-33.7 18.14,-22.03 27.21,-50.55 28.52,-84.25 -1.29,-40.17 -14.25,-67.4 -40.17,-82.94 -24.63,-15.56 -54.44,-28.52 -86.83,-37.59 -32.41,-9.07 -62.22,-23.32 -86.83,-42.77 -25.92,-19.45 -38.88,-53.13 -38.88,-101.1 0,-36.3 11.67,-69.98 36.3,-102.39 24.63,-32.41 63.51,-49.26 115.35,-51.84 47.95,1.29 84.25,16.85 107.57,46.66 23.32,29.81 36.3,64.8 37.59,104.99l-51.84 0c-1.29,-23.32 -9.07,-45.37 -23.32,-66.09 -14.25,-19.45 -37.59,-29.81 -68.69,-32.41 -32.41,1.29 -57.02,11.67 -72.58,32.41 -16.85,20.74 -24.63,42.77 -24.63,67.4 1.29,32.41 14.25,55.73 40.17,69.98 24.63,14.25 54.44,25.92 86.83,34.99 32.41,9.07 62.22,24.63 86.83,45.37 24.63,20.74 38.88,55.73 40.17,103.68 0,47.95 -12.96,89.43 -38.88,127.02 -25.92,36.3 -69.98,57.02 -129.6,58.33 -53.13,-2.6 -92.03,-20.74 -117.95,-57.02 -25.92,-34.99 -38.88,-73.87 -38.88,-115.35l-0.02 -0.02zm460.1 163.3l-53.13 0 0 -571.56 53.13 0 0 571.56zm136.09 -286.43c1.29,67.4 23.32,123.13 67.4,169.79 42.77,46.66 101.1,71.29 171.08,72.58 71.29,-2.6 127.02,-27.21 168.48,-76.47 41.48,-47.95 63.51,-104.99 64.8,-169.79 -1.29,-64.8 -24.63,-120.53 -68.69,-167.19 -44.06,-46.66 -99.79,-71.29 -168.48,-73.87 -68.69,2.6 -124.42,25.92 -167.19,72.58 -44.06,46.66 -66.09,103.68 -67.4,171.08l0 1.29zm238.48 -296.81c92.03,3.89 163.3,34.99 213.85,94.61 50.55,59.62 76.47,127.02 76.47,202.18 -1.29,75.18 -27.21,142.56 -79.07,202.18 -51.84,59.62 -124.42,90.72 -216.45,93.32 -90.72,-3.89 -162.01,-34.99 -212.56,-93.32 -50.55,-59.62 -76.47,-127.02 -77.76,-203.49 1.29,-79.07 27.21,-146.45 79.07,-204.78 51.84,-58.33 124.42,-88.14 215.14,-90.72l1.31 0.02zm749.12 515.83l0 -505.46 50.55 0 0 571.56 -66.09 0 -313.66 -502.87 0 502.87 -50.55 0 0 -571.56 66.09 0 313.66 505.46z"/>
    <path class="fil1" d="M1284.36 1109.32c-27.54,0 -51.78,-4.37 -72.73,-13.1 -20.95,-8.73 -37.41,-20.93 -49.39,-36.57 -11.97,-15.65 -18.36,-33.12 -19.15,-52.41l44.3 0c2,18.56 10.98,34.85 26.94,48.86 15.96,14.01 39.31,21.02 70.04,21.02 28.34,0 50.78,-6.64 67.35,-19.93 16.56,-13.28 24.84,-30.12 24.84,-50.5 0,-16.38 -4.59,-29.57 -13.77,-39.58 -9.18,-10.01 -20.55,-17.47 -34.12,-22.38 -13.57,-4.91 -32.33,-10.28 -56.27,-16.1 -27.93,-6.91 -50.08,-13.65 -66.45,-20.2 -16.36,-6.55 -30.33,-16.74 -41.9,-30.57 -11.57,-13.83 -17.36,-32.57 -17.36,-56.23 0,-19.65 5.59,-37.21 16.76,-52.68 11.18,-15.47 26.94,-27.57 47.29,-36.3 20.35,-8.73 43.7,-13.1 70.04,-13.1 38.71,0 69.94,8.64 93.69,25.93 23.74,17.29 37.41,39.58 41.01,66.87l-45.5 0c-2.79,-15.65 -12.17,-29.57 -28.13,-41.76 -15.96,-12.19 -37.52,-18.29 -64.65,-18.29 -25.14,0 -46.09,6.1 -62.86,18.29 -16.76,12.19 -25.14,28.84 -25.14,49.95 0,16.01 4.59,28.93 13.77,38.76 9.18,9.83 20.65,17.29 34.42,22.38 13.77,5.1 32.42,10.55 55.97,16.38 27.14,6.91 49.09,13.74 65.85,20.47 16.76,6.73 30.93,17.01 42.5,30.84 11.57,13.83 17.36,32.39 17.36,55.68 0,17.83 -5.19,34.76 -15.57,50.77 -10.38,16.01 -25.74,28.93 -46.09,38.76 -20.35,9.83 -44.7,14.74 -73.03,14.74zm542.89 0c-38.71,0 -73.83,-8.28 -105.36,-24.84 -31.53,-16.56 -56.37,-39.67 -74.53,-69.33 -18.16,-29.66 -27.24,-63.23 -27.24,-100.72 0,-37.48 9.08,-71.06 27.24,-100.72 18.16,-29.66 43,-52.77 74.53,-69.33 31.53,-16.56 66.64,-24.84 105.36,-24.84 39.11,0 74.43,8.28 105.96,24.84 31.53,16.56 56.27,39.67 74.23,69.33 17.96,29.66 26.94,63.23 26.94,100.72 0,37.49 -8.98,71.06 -26.94,100.72 -17.96,29.66 -42.7,52.77 -74.23,69.33 -31.53,16.56 -66.85,24.84 -105.96,24.84zm0 -33.3c31.13,0 59.06,-6.55 83.81,-19.65 24.74,-13.1 44.3,-31.94 58.66,-56.5 14.37,-24.57 21.55,-53.04 21.55,-85.44 0,-32.39 -7.18,-60.78 -21.55,-85.16 -14.37,-24.38 -33.92,-43.13 -58.66,-56.23 -24.74,-13.1 -52.68,-19.65 -83.81,-19.65 -31.13,0 -59.06,6.55 -83.81,19.65 -24.74,13.1 -44.3,31.84 -58.66,56.23 -14.37,24.38 -21.55,52.77 -21.55,85.16 0,32.39 7.18,60.87 21.55,85.44 14.37,24.56 33.92,43.4 58.66,56.5 24.74,13.1 52.68,19.65 83.81,19.65zm649.44 -352.11l0 31.66 -184.37 0 0 142.48 155.64 0 0 31.66 -155.64 0 0 175.78 -41.9 0 0 -381.59 226.28 0zm453.09 0l0 31.66 -116.13 0 0 349.93 -41.9 0 0 -349.93 -116.73 0 0 -31.66 274.77 0zm713.49 0l-118.52 381.59 -46.69 0 -105.36 -325.36 -107.75 325.36 -45.5 0.55 -116.13 -382.13 44.89 0 95.78 334.64 107.15 -334.64 46.69 0 104.16 334.64 96.38 -334.64 44.89 0zm445.91 290.97l-190.36 0 -36.52 90.62 -44.3 0 152.65 -376.68 47.29 0 152.05 376.68 -44.3 0 -36.52 -90.62zm-12.57 -31.66l-82.61 -206.35 -82.61 206.35 165.22 0zm522.53 122.28l-103.56 -159.4 -77.22 0 0 159.4 -41.9 0 0 -381.59 125.71 0c46.69,0 82.11,10.19 106.26,30.57 24.14,20.38 36.22,47.13 36.22,80.25 0,27.66 -8.68,51.22 -26.04,70.7 -17.36,19.47 -43,32.12 -76.92,37.94l107.75 162.13 -50.29 0zm-180.78 -190.52l84.4 0c32.72,0 57.37,-7.28 73.93,-21.84 16.56,-14.56 24.84,-34.03 24.84,-58.41 0,-25.11 -7.98,-44.49 -23.94,-58.14 -15.96,-13.65 -41.11,-20.47 -75.43,-20.47l-83.81 0 0 158.86zm490.8 -159.95l0 142.48 158.64 0 0 31.66 -158.64 0 0 144.66 176.59 0 0 31.66 -218.49 0 0 -382.13 218.49 0 0 31.66 -176.59 0z"/>
   </g>
  </g>
 </g>
</svg>
